# xmcd
#
# Track frame offsets: 
#        150
#        33310
#        81825
#        114399
#        154724
#        184581
#        215964
#        232704
#        261938
#
# Disc length: 4072 seconds
#
# Revision: 0
# Processed by: cddbd v1.5.2PL0 Copyright (c) Steve Scherf et al.
# Submitted via: ExactAudioCopy v1.3
#
DISCID=6f0fe609
DTITLE=Chef Dave - Live At The Baked Potato, Los Angeles, 2019
DYEAR=2020
DGENRE=Blues
TTITLE0=Born On The Bayou
TTITLE1=Fool For Your Stocklings
TTITLE2=Hoochi Choochi
TTITLE3=Let The Jukejoint Jump
TTITLE4=Midnight Special
TTITLE5=One Way Out
TTITLE6=Rainbow
TTITLE7=Steamroller
TTITLE8=Whipping Post
EXTD=
EXTT0=
EXTT1=
EXTT2=
EXTT3=
EXTT4=
EXTT5=
EXTT6=
EXTT7=
EXTT8=
PLAYORDER=
